<?xml version="1.0" encoding="iso-8859-1"?>
<!-- Uploaded to: SVG Repo, www.svgrepo.com, Generator: SVG Repo Mixer Tools -->
<svg height="800px" width="800px" version="1.1" id="Capa_1" xmlns="http://www.w3.org/2000/svg" xmlns:xlink="http://www.w3.org/1999/xlink" 
	 viewBox="0 0 313.725 313.725" xml:space="preserve">
<g>
	<g>
		<g>
			<path style="fill:#010002;" d="M82.981,180.131l48.25,48.255l91.779-91.801l-48.239-48.239L82.981,180.131z M129.327,150.493
				v-15.686h5.934v15.686h15.083l0.011,5.667h-15.093v15.817h-5.934v-15.817h-15.083l-0.011-5.668
				C114.234,150.493,129.327,150.493,129.327,150.493z M108.159,199.075h-5.934l0.011-15.817H87.142l-0.005-5.668h15.093v-15.697
				h5.934v15.697h15.093v5.668h-15.093v15.817H108.159z M158.987,193.098h-15.093v15.833h-5.934v-15.833h-15.093v-5.651
				l15.093-0.016v-15.681h5.923v15.697h15.093v5.651H158.987z M186.073,166h-15.077v15.833h-5.945V166l-15.088,0.016l0.005-5.667
				l15.083-0.016v-15.686h5.929l0.016,15.686l15.093,0.016L186.073,166z M192.611,117.098h5.929v15.681h15.093v5.667h-15.093v15.828
				h-5.929v-15.828h-15.093v-5.667h15.093V117.098z M177.898,128.585h-15.093v15.833h-5.923v-15.833h-15.093l0.005-5.651h15.088
				v-15.697h5.923v15.697h15.093V128.585z"/>
		</g>
		<g>
			<path style="fill:#010002;" d="M303.002,34.244L279.478,10.71C272.571,3.802,263.384,0,253.594,0
				c-9.785,0-18.971,3.802-25.879,10.71L10.701,227.717c-6.908,6.908-10.699,16.094-10.699,25.885s3.796,18.971,10.699,25.879
				l23.529,23.524c6.913,6.908,16.1,10.72,25.89,10.72c9.779,0,18.966-3.813,25.879-10.72L303.024,85.981
				c6.902-6.908,10.699-16.089,10.699-25.863C313.723,50.328,309.91,41.141,303.002,34.244z M42.455,259.509
				c-3.089,0-6.005-1.207-8.18-3.383c-4.509-4.514-4.509-11.852-0.005-16.366c2.187-2.181,5.091-3.383,8.191-3.383
				c3.089,0,5.994,1.202,8.175,3.383c4.509,4.514,4.509,11.852,0.005,16.366C48.454,258.301,45.544,259.509,42.455,259.509z
				 M71.075,276.56c-2.181,2.181-5.091,3.383-8.18,3.383s-6.005-1.202-8.18-3.383c-4.509-4.514-4.509-11.852-0.005-16.366
				c2.187-2.176,5.091-3.383,8.191-3.383c3.089,0,6.005,1.207,8.18,3.383C75.584,264.708,75.584,272.046,71.075,276.56z
				 M229.488,137.173l-98.257,98.257l-0.593-0.582l-54.695-54.717l0.582-0.582l98.246-98.257l0.582,0.582l54.717,54.712
				L229.488,137.173z M253.479,47.934c-3.089,0-5.999-1.202-8.175-3.383c-2.181-2.181-3.383-5.086-3.383-8.18
				c0-3.089,1.202-6.005,3.367-8.186c2.192-2.181,5.102-3.383,8.191-3.383c3.106,0,6.005,1.202,8.191,3.383
				c4.498,4.52,4.498,11.857,0,16.366C259.484,46.727,256.569,47.934,253.479,47.934z M282.105,64.986
				c-2.181,2.181-5.102,3.372-8.197,3.372c-3.095,0-5.994-1.191-8.175-3.372c-4.498-4.52-4.514-11.852-0.016-16.355
				c2.197-2.192,5.102-3.394,8.191-3.394s6.01,1.202,8.197,3.394c2.176,2.181,3.378,5.086,3.378,8.175
				C285.483,59.9,284.286,62.805,282.105,64.986z"/>
		</g>
	</g>
</g>
</svg>